<?xml version="1.0" encoding="utf-8"?>
<svg xmlns="http://www.w3.org/2000/svg" xmlns:xlink="http://www.w3.org/1999/xlink" width="600" height="400" viewBox="0 0 2400 1600">
<defs>
  <clipPath id="clip160">
    <rect x="0" y="0" width="2400" height="1600"/>
  </clipPath>
</defs>
<path clip-path="url(#clip160)" d="M0 1600 L2400 1600 L2400 0 L0 0  Z" fill="#ffffff" fill-rule="evenodd" fill-opacity="1"/>
<defs>
  <clipPath id="clip161">
    <rect x="480" y="0" width="1681" height="1600"/>
  </clipPath>
</defs>
<path clip-path="url(#clip160)" d="M174.126 1423.18 L2352.76 1423.18 L2352.76 47.2441 L174.126 47.2441  Z" fill="#ffffff" fill-rule="evenodd" fill-opacity="1"/>
<defs>
  <clipPath id="clip162">
    <rect x="174" y="47" width="2180" height="1377"/>
  </clipPath>
</defs>
<polyline clip-path="url(#clip160)" style="stroke:#000000; stroke-linecap:round; stroke-linejoin:round; stroke-width:4; stroke-opacity:1; fill:none" points="174.126,1423.18 2352.76,1423.18 "/>
<polyline clip-path="url(#clip160)" style="stroke:#808080; stroke-linecap:round; stroke-linejoin:round; stroke-width:4; stroke-opacity:1; fill:none" points="235.785,1423.18 235.785,1404.28 "/>
<polyline clip-path="url(#clip160)" style="stroke:#808080; stroke-linecap:round; stroke-linejoin:round; stroke-width:4; stroke-opacity:1; fill:none" points="749.613,1423.18 749.613,1404.28 "/>
<polyline clip-path="url(#clip160)" style="stroke:#808080; stroke-linecap:round; stroke-linejoin:round; stroke-width:4; stroke-opacity:1; fill:none" points="1263.44,1423.18 1263.44,1404.28 "/>
<polyline clip-path="url(#clip160)" style="stroke:#808080; stroke-linecap:round; stroke-linejoin:round; stroke-width:4; stroke-opacity:1; fill:none" points="1777.27,1423.18 1777.27,1404.28 "/>
<polyline clip-path="url(#clip160)" style="stroke:#808080; stroke-linecap:round; stroke-linejoin:round; stroke-width:4; stroke-opacity:1; fill:none" points="2291.1,1423.18 2291.1,1404.28 "/>
<path clip-path="url(#clip160)" d="M202.938 1481.64 L210.577 1481.64 L210.577 1455.28 L202.267 1456.95 L202.267 1452.69 L210.531 1451.02 L215.207 1451.02 L215.207 1481.64 L222.845 1481.64 L222.845 1485.58 L202.938 1485.58 L202.938 1481.64 Z" fill="#000000" fill-rule="nonzero" fill-opacity="1" /><path clip-path="url(#clip160)" d="M232.29 1479.7 L237.174 1479.7 L237.174 1485.58 L232.29 1485.58 L232.29 1479.7 Z" fill="#000000" fill-rule="nonzero" fill-opacity="1" /><path clip-path="url(#clip160)" d="M257.359 1454.1 Q253.748 1454.1 251.919 1457.66 Q250.114 1461.2 250.114 1468.33 Q250.114 1475.44 251.919 1479.01 Q253.748 1482.55 257.359 1482.55 Q260.993 1482.55 262.799 1479.01 Q264.628 1475.44 264.628 1468.33 Q264.628 1461.2 262.799 1457.66 Q260.993 1454.1 257.359 1454.1 M257.359 1450.39 Q263.169 1450.39 266.225 1455 Q269.303 1459.58 269.303 1468.33 Q269.303 1477.06 266.225 1481.67 Q263.169 1486.25 257.359 1486.25 Q251.549 1486.25 248.47 1481.67 Q245.415 1477.06 245.415 1468.33 Q245.415 1459.58 248.47 1455 Q251.549 1450.39 257.359 1450.39 Z" fill="#000000" fill-rule="nonzero" fill-opacity="1" /><path clip-path="url(#clip160)" d="M717.264 1481.64 L724.902 1481.64 L724.902 1455.28 L716.592 1456.95 L716.592 1452.69 L724.856 1451.02 L729.532 1451.02 L729.532 1481.64 L737.171 1481.64 L737.171 1485.58 L717.264 1485.58 L717.264 1481.64 Z" fill="#000000" fill-rule="nonzero" fill-opacity="1" /><path clip-path="url(#clip160)" d="M746.615 1479.7 L751.5 1479.7 L751.5 1485.58 L746.615 1485.58 L746.615 1479.7 Z" fill="#000000" fill-rule="nonzero" fill-opacity="1" /><path clip-path="url(#clip160)" d="M761.731 1451.02 L780.087 1451.02 L780.087 1454.96 L766.013 1454.96 L766.013 1463.43 Q767.032 1463.08 768.05 1462.92 Q769.069 1462.73 770.087 1462.73 Q775.874 1462.73 779.254 1465.9 Q782.634 1469.08 782.634 1474.49 Q782.634 1480.07 779.161 1483.17 Q775.689 1486.25 769.37 1486.25 Q767.194 1486.25 764.925 1485.88 Q762.68 1485.51 760.273 1484.77 L760.273 1480.07 Q762.356 1481.2 764.578 1481.76 Q766.8 1482.32 769.277 1482.32 Q773.282 1482.32 775.62 1480.21 Q777.958 1478.1 777.958 1474.49 Q777.958 1470.88 775.62 1468.77 Q773.282 1466.67 769.277 1466.67 Q767.402 1466.67 765.527 1467.08 Q763.675 1467.5 761.731 1468.38 L761.731 1451.02 Z" fill="#000000" fill-rule="nonzero" fill-opacity="1" /><path clip-path="url(#clip160)" d="M1234.68 1481.64 L1251 1481.64 L1251 1485.58 L1229.05 1485.58 L1229.05 1481.64 Q1231.72 1478.89 1236.3 1474.26 Q1240.91 1469.61 1242.09 1468.27 Q1244.33 1465.74 1245.21 1464.01 Q1246.11 1462.25 1246.11 1460.56 Q1246.11 1457.8 1244.17 1456.07 Q1242.25 1454.33 1239.15 1454.33 Q1236.95 1454.33 1234.49 1455.09 Q1232.06 1455.86 1229.29 1457.41 L1229.29 1452.69 Q1232.11 1451.55 1234.56 1450.97 Q1237.02 1450.39 1239.05 1450.39 Q1244.42 1450.39 1247.62 1453.08 Q1250.81 1455.77 1250.81 1460.26 Q1250.81 1462.39 1250 1464.31 Q1249.22 1466.2 1247.11 1468.8 Q1246.53 1469.47 1243.43 1472.69 Q1240.33 1475.88 1234.68 1481.64 Z" fill="#000000" fill-rule="nonzero" fill-opacity="1" /><path clip-path="url(#clip160)" d="M1260.81 1479.7 L1265.7 1479.7 L1265.7 1485.58 L1260.81 1485.58 L1260.81 1479.7 Z" fill="#000000" fill-rule="nonzero" fill-opacity="1" /><path clip-path="url(#clip160)" d="M1285.88 1454.1 Q1282.27 1454.1 1280.44 1457.66 Q1278.64 1461.2 1278.64 1468.33 Q1278.64 1475.44 1280.44 1479.01 Q1282.27 1482.55 1285.88 1482.55 Q1289.52 1482.55 1291.32 1479.01 Q1293.15 1475.44 1293.15 1468.33 Q1293.15 1461.2 1291.32 1457.66 Q1289.52 1454.1 1285.88 1454.1 M1285.88 1450.39 Q1291.69 1450.39 1294.75 1455 Q1297.83 1459.58 1297.83 1468.33 Q1297.83 1477.06 1294.75 1481.67 Q1291.69 1486.25 1285.88 1486.25 Q1280.07 1486.25 1276.99 1481.67 Q1273.94 1477.06 1273.94 1468.33 Q1273.94 1459.58 1276.99 1455 Q1280.07 1450.39 1285.88 1450.39 Z" fill="#000000" fill-rule="nonzero" fill-opacity="1" /><path clip-path="url(#clip160)" d="M1749 1481.64 L1765.32 1481.64 L1765.32 1485.58 L1743.38 1485.58 L1743.38 1481.64 Q1746.04 1478.89 1750.63 1474.26 Q1755.23 1469.61 1756.41 1468.27 Q1758.66 1465.74 1759.54 1464.01 Q1760.44 1462.25 1760.44 1460.56 Q1760.44 1457.8 1758.5 1456.07 Q1756.57 1454.33 1753.47 1454.33 Q1751.27 1454.33 1748.82 1455.09 Q1746.39 1455.86 1743.61 1457.41 L1743.61 1452.69 Q1746.44 1451.55 1748.89 1450.97 Q1751.34 1450.39 1753.38 1450.39 Q1758.75 1450.39 1761.94 1453.08 Q1765.14 1455.77 1765.14 1460.26 Q1765.14 1462.39 1764.33 1464.31 Q1763.54 1466.2 1761.44 1468.8 Q1760.86 1469.47 1757.75 1472.69 Q1754.65 1475.88 1749 1481.64 Z" fill="#000000" fill-rule="nonzero" fill-opacity="1" /><path clip-path="url(#clip160)" d="M1775.14 1479.7 L1780.02 1479.7 L1780.02 1485.58 L1775.14 1485.58 L1775.14 1479.7 Z" fill="#000000" fill-rule="nonzero" fill-opacity="1" /><path clip-path="url(#clip160)" d="M1790.25 1451.02 L1808.61 1451.02 L1808.61 1454.96 L1794.54 1454.96 L1794.54 1463.43 Q1795.56 1463.08 1796.57 1462.92 Q1797.59 1462.73 1798.61 1462.73 Q1804.4 1462.73 1807.78 1465.9 Q1811.16 1469.08 1811.16 1474.49 Q1811.16 1480.07 1807.69 1483.17 Q1804.21 1486.25 1797.89 1486.25 Q1795.72 1486.25 1793.45 1485.88 Q1791.2 1485.51 1788.8 1484.77 L1788.8 1480.07 Q1790.88 1481.2 1793.1 1481.76 Q1795.32 1482.32 1797.8 1482.32 Q1801.81 1482.32 1804.14 1480.21 Q1806.48 1478.1 1806.48 1474.49 Q1806.48 1470.88 1804.14 1468.77 Q1801.81 1466.67 1797.8 1466.67 Q1795.93 1466.67 1794.05 1467.08 Q1792.2 1467.5 1790.25 1468.38 L1790.25 1451.02 Z" fill="#000000" fill-rule="nonzero" fill-opacity="1" /><path clip-path="url(#clip160)" d="M2272.4 1466.95 Q2275.76 1467.66 2277.64 1469.93 Q2279.53 1472.2 2279.53 1475.53 Q2279.53 1480.65 2276.02 1483.45 Q2272.5 1486.25 2266.02 1486.25 Q2263.84 1486.25 2261.52 1485.81 Q2259.23 1485.39 2256.78 1484.54 L2256.78 1480.02 Q2258.72 1481.16 2261.04 1481.74 Q2263.35 1482.32 2265.88 1482.32 Q2270.27 1482.32 2272.57 1480.58 Q2274.88 1478.84 2274.88 1475.53 Q2274.88 1472.48 2272.73 1470.77 Q2270.6 1469.03 2266.78 1469.03 L2262.75 1469.03 L2262.75 1465.19 L2266.96 1465.19 Q2270.41 1465.19 2272.24 1463.82 Q2274.07 1462.43 2274.07 1459.84 Q2274.07 1457.18 2272.17 1455.77 Q2270.3 1454.33 2266.78 1454.33 Q2264.86 1454.33 2262.66 1454.75 Q2260.46 1455.16 2257.82 1456.04 L2257.82 1451.88 Q2260.48 1451.14 2262.8 1450.77 Q2265.14 1450.39 2267.2 1450.39 Q2272.52 1450.39 2275.62 1452.83 Q2278.72 1455.23 2278.72 1459.35 Q2278.72 1462.22 2277.08 1464.21 Q2275.44 1466.18 2272.4 1466.95 Z" fill="#000000" fill-rule="nonzero" fill-opacity="1" /><path clip-path="url(#clip160)" d="M2288.4 1479.7 L2293.28 1479.7 L2293.28 1485.58 L2288.4 1485.58 L2288.4 1479.7 Z" fill="#000000" fill-rule="nonzero" fill-opacity="1" /><path clip-path="url(#clip160)" d="M2313.47 1454.1 Q2309.86 1454.1 2308.03 1457.66 Q2306.22 1461.2 2306.22 1468.33 Q2306.22 1475.44 2308.03 1479.01 Q2309.86 1482.55 2313.47 1482.55 Q2317.1 1482.55 2318.91 1479.01 Q2320.74 1475.44 2320.74 1468.33 Q2320.74 1461.2 2318.91 1457.66 Q2317.1 1454.1 2313.47 1454.1 M2313.47 1450.39 Q2319.28 1450.39 2322.33 1455 Q2325.41 1459.58 2325.41 1468.33 Q2325.41 1477.06 2322.33 1481.67 Q2319.28 1486.25 2313.47 1486.25 Q2307.66 1486.25 2304.58 1481.67 Q2301.52 1477.06 2301.52 1468.33 Q2301.52 1459.58 2304.58 1455 Q2307.66 1450.39 2313.47 1450.39 Z" fill="#000000" fill-rule="nonzero" fill-opacity="1" /><path clip-path="url(#clip160)" d="M1261.56 1506.7 Q1261.56 1507.31 1261.3 1507.6 Q1261.04 1507.86 1260.75 1507.92 Q1260.46 1507.95 1259.78 1507.95 Q1258.4 1507.95 1257.66 1508.05 Q1256.92 1508.15 1256.47 1508.57 Q1256.02 1508.95 1255.86 1509.34 Q1255.73 1509.73 1255.5 1510.72 L1247.77 1541.51 Q1246.58 1546.25 1242.26 1549.34 Q1237.95 1552.4 1233.21 1552.4 Q1229.35 1552.4 1226.9 1550.37 Q1224.49 1548.31 1224.49 1545.22 Q1224.49 1543.64 1225 1542.51 Q1225.52 1541.38 1226.29 1540.87 Q1227.06 1540.35 1227.71 1540.16 Q1228.38 1539.93 1228.93 1539.93 Q1229.99 1539.93 1230.9 1540.61 Q1231.83 1541.29 1231.83 1542.7 Q1231.83 1544.28 1230.61 1545.6 Q1229.38 1546.92 1227.55 1546.92 Q1226.93 1546.92 1226.74 1546.86 Q1227.22 1548.44 1228.48 1549.44 Q1229.74 1550.4 1230.83 1550.69 Q1231.96 1550.95 1233.02 1550.95 Q1235.79 1550.95 1238.59 1548.28 Q1241.39 1545.6 1242.52 1541.06 L1250.09 1510.79 Q1250.35 1509.76 1250.35 1509.4 Q1250.35 1508.73 1249.93 1508.5 Q1249.54 1508.24 1248.32 1508.08 Q1246.68 1507.95 1244.49 1507.95 Q1243.71 1507.95 1243.39 1507.95 Q1243.07 1507.92 1242.75 1507.86 Q1242.43 1507.79 1242.33 1507.66 Q1242.23 1507.5 1242.23 1507.21 Q1242.23 1506.6 1242.49 1506.31 Q1242.75 1505.99 1242.97 1505.96 Q1243.2 1505.89 1243.62 1505.89 L1253.31 1506.09 Q1254.15 1506.09 1256.98 1505.99 Q1259.82 1505.89 1260.65 1505.89 Q1261.56 1505.89 1261.56 1506.7 Z" fill="#000000" fill-rule="nonzero" fill-opacity="1" /><path clip-path="url(#clip160)" d="M1295.62 1539.65 L1293.12 1549.75 Q1292.98 1550.36 1292.87 1550.52 Q1292.76 1550.68 1292.44 1550.68 Q1292.19 1550.68 1292.04 1550.56 Q1291.9 1550.45 1291.9 1550.34 L1291.88 1550.23 Q1291.88 1550.16 1291.92 1549.82 Q1291.97 1549.46 1292.01 1548.87 Q1292.06 1548.29 1292.06 1547.63 Q1292.06 1543.94 1290.26 1542.22 Q1288.47 1540.49 1285.41 1540.49 Q1283.29 1540.49 1281.4 1541.61 Q1279.5 1542.74 1278.42 1544.52 Q1277.34 1546.28 1277.34 1548.13 Q1277.34 1549.82 1278.19 1550.9 Q1279.05 1551.98 1280.16 1552.35 L1283.24 1553.18 Q1286.49 1554.01 1287.41 1554.37 Q1288.34 1554.71 1289.11 1555.48 Q1291.38 1557.6 1291.38 1560.89 Q1291.38 1563.73 1289.78 1566.48 Q1288.18 1569.21 1285.43 1570.99 Q1282.68 1572.75 1279.64 1572.75 Q1274.29 1572.75 1271.84 1569.43 L1269.58 1572.05 Q1269.15 1572.54 1269.02 1572.63 Q1268.91 1572.75 1268.75 1572.75 Q1268.55 1572.75 1268.39 1572.61 Q1268.23 1572.5 1268.23 1572.3 Q1268.23 1572.14 1269.56 1566.84 Q1270.89 1561.54 1271 1561.43 Q1271.18 1561.25 1271.48 1561.25 Q1272.02 1561.25 1272.02 1561.77 Q1271.97 1561.9 1271.93 1562.08 Q1271.66 1563.71 1271.66 1564.59 Q1271.66 1566.23 1272.22 1567.49 Q1272.78 1568.73 1273.62 1569.46 Q1274.47 1570.16 1275.62 1570.61 Q1276.77 1571.03 1277.74 1571.19 Q1278.71 1571.33 1279.73 1571.33 Q1281.91 1571.33 1283.85 1570.06 Q1285.81 1568.8 1286.92 1566.84 Q1288.05 1564.88 1288.05 1562.83 Q1288.05 1561.75 1287.75 1560.91 Q1287.46 1560.06 1287.05 1559.58 Q1286.67 1559.11 1286.02 1558.75 Q1285.36 1558.39 1284.91 1558.25 Q1284.48 1558.09 1283.81 1557.94 L1278.87 1556.63 Q1276.89 1556.04 1275.47 1554.35 Q1274.07 1552.66 1274.07 1550.07 Q1274.07 1547.34 1275.67 1544.82 Q1277.29 1542.27 1279.93 1540.73 Q1282.59 1539.18 1285.45 1539.18 Q1287.71 1539.18 1289.44 1540.06 Q1291.18 1540.92 1292.06 1542.52 L1294.29 1539.88 Q1294.74 1539.36 1294.83 1539.27 Q1294.94 1539.18 1295.1 1539.18 Q1295.37 1539.18 1295.49 1539.34 Q1295.62 1539.5 1295.62 1539.65 Z" fill="#000000" fill-rule="nonzero" fill-opacity="1" /><polyline clip-path="url(#clip160)" style="stroke:#000000; stroke-linecap:round; stroke-linejoin:round; stroke-width:4; stroke-opacity:1; fill:none" points="174.126,1423.18 174.126,47.2441 "/>
<polyline clip-path="url(#clip160)" style="stroke:#808080; stroke-linecap:round; stroke-linejoin:round; stroke-width:4; stroke-opacity:1; fill:none" points="174.126,1384.24 193.023,1384.24 "/>
<polyline clip-path="url(#clip160)" style="stroke:#808080; stroke-linecap:round; stroke-linejoin:round; stroke-width:4; stroke-opacity:1; fill:none" points="174.126,951.554 193.023,951.554 "/>
<polyline clip-path="url(#clip160)" style="stroke:#808080; stroke-linecap:round; stroke-linejoin:round; stroke-width:4; stroke-opacity:1; fill:none" points="174.126,518.87 193.023,518.87 "/>
<polyline clip-path="url(#clip160)" style="stroke:#808080; stroke-linecap:round; stroke-linejoin:round; stroke-width:4; stroke-opacity:1; fill:none" points="174.126,86.1857 193.023,86.1857 "/>
<path clip-path="url(#clip160)" d="M117.223 1366.96 L135.579 1366.96 L135.579 1370.89 L121.505 1370.89 L121.505 1379.37 Q122.524 1379.02 123.543 1378.86 Q124.561 1378.67 125.58 1378.67 Q131.367 1378.67 134.746 1381.84 Q138.126 1385.01 138.126 1390.43 Q138.126 1396.01 134.654 1399.11 Q131.181 1402.19 124.862 1402.19 Q122.686 1402.19 120.418 1401.82 Q118.172 1401.45 115.765 1400.71 L115.765 1396.01 Q117.848 1397.14 120.07 1397.7 Q122.293 1398.25 124.769 1398.25 Q128.774 1398.25 131.112 1396.15 Q133.45 1394.04 133.45 1390.43 Q133.45 1386.82 131.112 1384.71 Q128.774 1382.61 124.769 1382.61 Q122.894 1382.61 121.019 1383.02 Q119.168 1383.44 117.223 1384.32 L117.223 1366.96 Z" fill="#000000" fill-rule="nonzero" fill-opacity="1" /><path clip-path="url(#clip160)" d="M126.598 949.691 Q123.45 949.691 121.598 951.843 Q119.769 953.996 119.769 957.746 Q119.769 961.473 121.598 963.649 Q123.45 965.802 126.598 965.802 Q129.746 965.802 131.575 963.649 Q133.427 961.473 133.427 957.746 Q133.427 953.996 131.575 951.843 Q129.746 949.691 126.598 949.691 M135.88 935.038 L135.88 939.297 Q134.121 938.464 132.316 938.024 Q130.533 937.584 128.774 937.584 Q124.144 937.584 121.691 940.709 Q119.26 943.834 118.913 950.154 Q120.279 948.14 122.339 947.075 Q124.399 945.987 126.876 945.987 Q132.084 945.987 135.093 949.158 Q138.126 952.306 138.126 957.746 Q138.126 963.07 134.978 966.288 Q131.83 969.505 126.598 969.505 Q120.603 969.505 117.431 964.922 Q114.26 960.316 114.26 951.589 Q114.26 943.394 118.149 938.533 Q122.038 933.649 128.589 933.649 Q130.348 933.649 132.13 933.996 Q133.936 934.344 135.88 935.038 Z" fill="#000000" fill-rule="nonzero" fill-opacity="1" /><path clip-path="url(#clip160)" d="M115.904 501.59 L138.126 501.59 L138.126 503.581 L125.58 536.15 L120.695 536.15 L132.501 505.525 L115.904 505.525 L115.904 501.59 Z" fill="#000000" fill-rule="nonzero" fill-opacity="1" /><path clip-path="url(#clip160)" d="M126.274 87.0537 Q122.941 87.0537 121.019 88.8361 Q119.121 90.6185 119.121 93.7435 Q119.121 96.8685 121.019 98.6509 Q122.941 100.433 126.274 100.433 Q129.607 100.433 131.529 98.6509 Q133.45 96.8453 133.45 93.7435 Q133.45 90.6185 131.529 88.8361 Q129.63 87.0537 126.274 87.0537 M121.598 85.063 Q118.589 84.3223 116.899 82.2621 Q115.232 80.2019 115.232 77.239 Q115.232 73.0955 118.172 70.6881 Q121.135 68.2807 126.274 68.2807 Q131.436 68.2807 134.376 70.6881 Q137.316 73.0955 137.316 77.239 Q137.316 80.2019 135.626 82.2621 Q133.959 84.3223 130.973 85.063 Q134.353 85.85 136.228 88.1417 Q138.126 90.4333 138.126 93.7435 Q138.126 98.7666 135.047 101.452 Q131.992 104.137 126.274 104.137 Q120.556 104.137 117.478 101.452 Q114.422 98.7666 114.422 93.7435 Q114.422 90.4333 116.32 88.1417 Q118.218 85.85 121.598 85.063 M119.885 77.6788 Q119.885 80.3639 121.552 81.8686 Q123.242 83.3732 126.274 83.3732 Q129.283 83.3732 130.973 81.8686 Q132.686 80.3639 132.686 77.6788 Q132.686 74.9936 130.973 73.489 Q129.283 71.9844 126.274 71.9844 Q123.242 71.9844 121.552 73.489 Q119.885 74.9936 119.885 77.6788 Z" fill="#000000" fill-rule="nonzero" fill-opacity="1" /><path clip-path="url(#clip160)" d="M17.7592 740.154 Q18.3711 740.154 18.6609 740.412 Q18.9186 740.669 18.983 740.959 Q19.0152 741.249 19.0152 741.925 Q19.0152 743.31 19.1118 744.051 Q19.2084 744.792 19.6271 745.243 Q20.0136 745.694 20.4001 745.855 Q20.7865 745.983 21.7849 746.209 L52.5737 753.938 Q57.308 755.13 60.3997 759.445 Q63.4593 763.761 63.4593 768.495 Q63.4593 772.36 61.4303 774.808 Q59.3692 777.223 56.2774 777.223 Q54.6993 777.223 53.5721 776.708 Q52.4449 776.192 51.9296 775.42 Q51.4143 774.647 51.2211 774.002 Q50.9956 773.326 50.9956 772.779 Q50.9956 771.716 51.672 770.814 Q52.3483 769.88 53.7653 769.88 Q55.3434 769.88 56.6639 771.104 Q57.9843 772.328 57.9843 774.164 Q57.9843 774.775 57.9199 774.969 Q59.498 774.486 60.4964 773.23 Q61.4625 771.974 61.7524 770.879 Q62.01 769.751 62.01 768.689 Q62.01 765.919 59.3369 763.117 Q56.6639 760.315 52.1228 759.188 L21.8493 751.619 Q20.8187 751.362 20.4645 751.362 Q19.7881 751.362 19.5627 751.78 Q19.3051 752.167 19.144 753.391 Q19.0152 755.033 19.0152 757.223 Q19.0152 757.996 19.0152 758.318 Q18.983 758.64 18.9186 758.962 Q18.8542 759.284 18.7254 759.381 Q18.5643 759.478 18.2745 759.478 Q17.6626 759.478 17.3727 759.22 Q17.0507 758.962 17.0184 758.737 Q16.954 758.511 16.954 758.093 L17.1473 748.399 Q17.1473 747.561 17.0507 744.727 Q16.954 741.893 16.954 741.056 Q16.954 740.154 17.7592 740.154 Z" fill="#000000" fill-rule="nonzero" fill-opacity="1" /><path clip-path="url(#clip160)" d="M51.9698 700.002 L59.9504 700.926 Q60.6718 700.994 60.8973 701.107 Q61.1002 701.219 61.1002 701.58 Q61.1002 701.851 60.9424 702.008 Q60.762 702.144 60.5591 702.144 Q60.4464 702.144 60.1533 702.121 Q59.8603 702.099 59.725 702.099 Q58.3273 701.896 57.2677 701.896 Q55.3063 701.896 54.2468 702.482 Q53.1647 703.068 52.6687 704.578 Q52.1502 706.089 52.1502 708.929 L52.1502 715.422 Q52.1502 716.91 52.4207 717.271 Q52.6912 717.609 53.9537 717.925 L65.0679 720.697 L65.0679 716.346 Q65.0679 714.723 64.865 713.754 Q64.6621 712.762 64.0985 712.108 Q63.5124 711.432 62.7234 711.071 Q61.9343 710.688 60.514 710.305 Q60.0406 710.192 59.8603 710.079 Q59.6799 709.944 59.6799 709.651 Q59.6799 709.425 59.8377 709.268 Q59.973 709.11 60.1759 709.11 L70.9745 711.747 Q71.5156 711.883 71.7185 712.018 Q71.8988 712.153 71.8988 712.424 Q71.8988 712.717 71.741 712.875 Q71.5832 713.032 71.4028 713.032 Q71.2225 713.032 70.8843 712.897 Q69.419 712.559 68.6299 712.559 Q68.179 712.559 67.9536 712.604 Q67.7281 712.627 67.4125 712.83 Q67.0744 713.01 66.9166 713.416 Q66.7587 713.821 66.646 714.588 Q66.5108 715.354 66.5108 716.504 L66.5108 721.058 L79.1129 724.214 Q79.947 724.44 80.1725 724.44 Q80.4205 724.44 80.5107 724.327 Q80.5783 724.192 80.6234 723.831 Q80.691 723.425 80.691 722.817 L80.691 716.076 Q80.691 714.588 80.5557 713.393 Q80.4205 712.198 80.0823 711.206 Q79.7442 710.192 79.3609 709.425 Q78.9777 708.659 78.2788 707.937 Q77.5574 707.216 76.9261 706.72 Q76.2724 706.202 75.1677 705.593 Q74.063 704.984 73.1613 704.556 Q72.237 704.128 70.7491 703.474 Q70.208 703.293 70.208 702.865 Q70.208 702.617 70.3433 702.482 Q70.456 702.347 70.5687 702.324 L70.704 702.324 Q71.1323 702.459 71.3577 702.549 L81.3222 706.788 Q81.8858 707.036 81.9986 707.239 Q82.1113 707.441 82.1113 708.231 L82.1113 732.195 Q82.1113 732.736 82.0887 732.961 Q82.0662 733.164 81.9535 733.322 Q81.8182 733.48 81.5477 733.48 Q81.1193 733.48 80.939 733.3 Q80.7361 733.119 80.7135 732.916 Q80.691 732.713 80.691 732.195 Q80.691 731.068 80.6234 730.391 Q80.5557 729.715 80.4656 729.287 Q80.3528 728.836 80.0372 728.61 Q79.7216 728.362 79.4511 728.25 Q79.158 728.137 78.5042 727.979 L54.089 721.892 Q53.2548 721.667 52.9843 721.667 Q52.6912 721.667 52.5109 721.87 Q52.3305 722.05 52.2629 722.546 Q52.1727 723.042 52.1727 723.448 Q52.1502 723.831 52.1502 724.665 Q52.1502 725.206 52.1276 725.432 Q52.1051 725.635 51.9924 725.792 Q51.8796 725.95 51.6317 725.95 Q51.0004 725.95 50.8652 725.68 Q50.7073 725.387 50.7073 724.575 L50.7073 701.264 Q50.7073 700.34 50.9102 700.137 Q51.0906 699.912 51.9698 700.002 Z" fill="#000000" fill-rule="nonzero" fill-opacity="1" /><circle clip-path="url(#clip162)" cx="235.785" cy="1384.24" r="18" fill="#2471a3" fill-rule="evenodd" fill-opacity="1" stroke="none"/>
<circle clip-path="url(#clip162)" cx="1263.44" cy="951.554" r="18" fill="#2471a3" fill-rule="evenodd" fill-opacity="1" stroke="none"/>
<circle clip-path="url(#clip162)" cx="2291.1" cy="518.87" r="18" fill="#2471a3" fill-rule="evenodd" fill-opacity="1" stroke="none"/>
</svg>
